<svg width="19" height="16" viewBox="0 0 19 16" fill="none" xmlns="http://www.w3.org/2000/svg">
  <path fill-rule="evenodd" clip-rule="evenodd"
    d="M2 3.5V13C2 13.8284 2.67157 14.5 3.5 14.5H15.5C16.3284 14.5 17 13.8284 17 13V3.5H2ZM0.5 3C0.5 1.34315 1.84315 0 3.5 0H15.5C17.1569 0 18.5 1.34315 18.5 3V13C18.5 14.6569 17.1569 16 15.5 16H3.5C1.84315 16 0.5 14.6569 0.5 13V3ZM3.5 6C3.5 5.44772 3.94772 5 4.5 5H5.5C6.05228 5 6.5 5.44772 6.5 6V7C6.5 7.55228 6.05228 8 5.5 8H4.5C3.94772 8 3.5 7.55228 3.5 7V6ZM4.5 9.5C3.94772 9.5 3.5 9.94771 3.5 10.5V11.5C3.5 12.0523 3.94772 12.5 4.5 12.5H5.5C6.05228 12.5 6.5 12.0523 6.5 11.5V10.5C6.5 9.94772 6.05228 9.5 5.5 9.5H4.5ZM8 6C8 5.44772 8.44772 5 9 5H10C10.5523 5 11 5.44772 11 6V7C11 7.55228 10.5523 8 10 8H9C8.44772 8 8 7.55228 8 7V6ZM13.5 5C12.9477 5 12.5 5.44772 12.5 6V7C12.5 7.55228 12.9477 8 13.5 8H14.5C15.0523 8 15.5 7.55228 15.5 7V6C15.5 5.44772 15.0523 5 14.5 5H13.5ZM12.5 10.5C12.5 9.94771 12.9477 9.5 13.5 9.5H14.5C15.0523 9.5 15.5 9.94772 15.5 10.5V11.5C15.5 12.0523 15.0523 12.5 14.5 12.5H13.5C12.9477 12.5 12.5 12.0523 12.5 11.5V10.5ZM9 9.5C8.44772 9.5 8 9.94771 8 10.5V11.5C8 12.0523 8.44772 12.5 9 12.5H10C10.5523 12.5 11 12.0523 11 11.5V10.5C11 9.94772 10.5523 9.5 10 9.5H9Z"
    fill="#30363C" />
</svg>