<svg width="94" height="25" viewBox="0 0 94 25" fill="none" xmlns="http://www.w3.org/2000/svg">
<path d="M17.627 5.15936C18.4579 5.15936 19.2697 5.15936 20.1006 5.15936C20.1054 5.22032 20.1101 5.28128 20.1101 5.33755C20.1101 8.13239 20.1388 10.9319 20.1006 13.7268C20.0815 15.2696 19.3509 16.4747 17.9947 17.2766C17.0683 17.8252 16.1228 18.3458 15.1868 18.8757C15.12 18.9132 15.0483 18.9554 14.9624 19.007C15.4399 19.2836 15.8983 19.5462 16.3568 19.8088C17.1638 20.2684 17.9708 20.7232 18.7778 21.1828C19.1026 21.3704 19.1073 21.3985 18.7874 21.5814C16.925 22.6412 15.0626 23.701 13.1955 24.7467C12.5652 25.1031 11.9205 25.0515 11.2997 24.7045C10.1107 24.0386 8.93116 23.3633 7.74688 22.6928C6.83957 22.1769 5.93704 21.6564 5.02496 21.15C4.80529 21.0281 4.72889 20.8686 4.72889 20.6295C4.73367 18.191 4.73367 15.7572 4.73844 13.3188C4.73844 13.1687 4.74799 13.014 4.78619 12.8686C4.90558 12.4325 5.16344 12.0855 5.56457 11.8604C7.36008 10.8381 9.16037 9.81586 10.9607 8.79828C11.1803 8.67166 11.4191 8.83579 11.4239 9.12184C11.4334 9.45947 11.4286 9.7971 11.4286 10.1347C11.4286 11.1101 11.4334 12.0808 11.4334 13.0562C11.4334 13.1172 11.4382 13.1734 11.4477 13.2625C11.7963 13.0703 12.1211 12.8874 12.4458 12.6998C12.6654 12.5779 12.8851 12.456 13.0952 12.3247C13.1477 12.2918 13.2051 12.2074 13.2051 12.1465C13.2098 10.2989 13.2098 8.45596 13.2146 6.60836C13.2146 6.46299 13.1716 6.37858 13.0379 6.30355C11.4095 5.39851 9.79071 4.48409 8.17188 3.57436C8.10981 3.54154 7.99997 3.52747 7.94267 3.56029C7.36963 3.87448 6.80137 4.20273 6.23311 4.5263C6.21401 4.53567 6.19968 4.54974 6.16148 4.57788C6.38115 4.70449 6.58171 4.82172 6.78705 4.93896C7.77553 5.50168 8.7688 6.0644 9.75728 6.62712C9.82414 6.66463 9.89099 6.71621 9.93875 6.77717C10.0677 6.94599 10.0343 7.11012 9.84802 7.21797C9.11262 7.64001 8.37722 8.06674 7.63705 8.48409C6.32862 9.22501 5.02018 9.96592 3.7022 10.6975C3.02888 11.0726 2.71371 11.6353 2.71371 12.3856C2.71371 14.2473 2.71371 16.1089 2.71371 17.9753C2.71371 18.8522 2.71371 19.7291 2.71371 20.6107C2.71371 20.6717 2.71371 20.7326 2.71371 20.803C1.89236 20.803 1.08533 20.803 0.259206 20.803C0.254431 20.7467 0.249656 20.6857 0.249656 20.6295C0.249656 17.8393 0.216229 15.0445 0.263982 12.2543C0.287858 10.6881 1.03758 9.46885 2.42719 8.66698C3.35838 8.1277 4.29911 7.6025 5.23507 7.06791C5.28282 7.03978 5.33058 7.00695 5.40221 6.96475C5.06316 6.7678 4.73844 6.58022 4.41372 6.39734C3.45866 5.85338 2.49882 5.3141 1.54376 4.77014C1.51034 4.75138 1.47213 4.73263 1.43871 4.70918C1.27635 4.60601 1.27635 4.55912 1.43871 4.46533C1.89236 4.20742 2.35079 3.94951 2.80444 3.68691C4.21793 2.88503 5.63142 2.09253 7.04014 1.28128C7.73733 0.882685 8.41542 0.892064 9.10307 1.28128C11.1708 2.46299 13.2289 3.63532 15.2966 4.79828C15.545 4.93896 15.6452 5.11246 15.6452 5.39382C15.6357 7.81821 15.6405 10.2426 15.6405 12.6717C15.6405 13.3235 15.3396 13.8112 14.7857 14.1347C13.8545 14.6787 12.9138 15.1992 11.9778 15.7338C11.1564 16.198 10.3303 16.6623 9.50897 17.1312C9.1747 17.3188 8.94548 17.1922 8.94548 16.803C8.94071 15.5462 8.94548 14.2942 8.94548 13.0374C8.94548 12.9436 8.94548 12.8452 8.94548 12.7186C8.80222 12.7936 8.67807 12.8592 8.55868 12.9249C8.13846 13.164 7.71823 13.4079 7.29323 13.6424C7.19772 13.6986 7.15952 13.7549 7.15952 13.8674C7.1643 15.7197 7.1643 17.572 7.15952 19.4196C7.15952 19.5228 7.19295 19.5791 7.28368 19.6306C8.92638 20.5591 10.5643 21.4923 12.207 22.4208C12.2595 22.4489 12.3598 22.463 12.4076 22.4349C13.0045 22.1066 13.5966 21.7643 14.2222 21.4126C13.9691 21.2672 13.7351 21.1265 13.5059 20.9952C12.5747 20.4653 11.6435 19.9401 10.7123 19.4102C10.655 19.3774 10.593 19.3446 10.5357 19.3071C10.3017 19.1476 10.3064 18.8944 10.55 18.7537C11.7104 18.0925 12.8708 17.436 14.0264 16.7795C14.9003 16.2871 15.7694 15.7901 16.6433 15.2977C17.159 15.007 17.5315 14.6084 17.6222 14.0081C17.6413 13.8862 17.6365 13.7596 17.6365 13.6377C17.6365 10.885 17.6365 8.13239 17.6365 5.38444C17.627 5.30941 17.627 5.23907 17.627 5.15936Z" fill="white"/>
<path fill-rule="evenodd" clip-rule="evenodd" d="M28.3943 16.7561C29.784 17.0656 31.0637 16.803 32.2194 15.9776C32.2684 15.9439 32.315 15.9052 32.3629 15.8654C32.4082 15.8277 32.4548 15.789 32.5059 15.7525C33.0646 16.3622 33.6185 16.9671 34.182 17.5861C33.8525 17.9143 33.4944 18.191 33.1028 18.4255C32.1191 19.021 31.0398 19.2836 29.9033 19.3305C28.7716 19.3774 27.6637 19.2555 26.5988 18.8428C25.0086 18.2238 23.9533 17.0984 23.4232 15.5134C22.9314 14.0362 22.9027 12.531 23.3898 11.0491C24.1109 8.85453 25.6294 7.48994 27.9407 7.01632C29.2157 6.7584 30.4811 6.79123 31.7132 7.24609C32.5393 7.55559 33.2604 8.01983 33.8955 8.62007C33.9194 8.64351 33.9385 8.66696 33.9385 8.66696L32.9532 9.66794L32.2814 10.3504C31.7991 9.91432 31.25 9.63765 30.6339 9.49228C29.846 9.30471 29.0581 9.30471 28.275 9.5298C27.2578 9.82054 26.532 10.463 26.1117 11.4102C25.6008 12.5544 25.5817 13.7267 26.0783 14.8803C26.5129 15.8932 27.3103 16.5169 28.3943 16.7561ZM64.074 11.5C64.1027 11.5334 64.1325 11.568 64.1948 11.5884C64.1948 10.116 64.1948 8.63882 64.1996 7.15231H66.7018V19.0304H66.1957C65.6704 19.0304 65.1499 19.0304 64.6293 19.0351C64.51 19.0351 64.4622 19.0069 64.4479 18.8803C64.4215 18.6616 64.3861 18.4429 64.3488 18.2126L64.3488 18.2125L64.3484 18.2102C64.3387 18.15 64.3288 18.0889 64.319 18.0269C64.3001 18.0433 64.2841 18.0552 64.2704 18.0654C64.2527 18.0785 64.239 18.0887 64.2282 18.1019C63.6982 18.7678 63.0153 19.1617 62.151 19.2508C61.0717 19.3633 60.0498 19.218 59.1282 18.613C58.2734 18.0503 57.7338 17.2531 57.4712 16.2871C57.156 15.1335 57.1799 13.98 57.6431 12.8639C58.2018 11.5134 59.2571 10.7584 60.704 10.5192C61.4633 10.3926 62.2226 10.4161 62.9484 10.7115C63.3782 10.8897 63.7459 11.1476 64.0611 11.4852L64.074 11.5ZM62.1748 16.9999C62.6285 16.9858 63.3066 16.803 63.7602 16.184C64.1852 15.6025 64.2521 14.9366 64.085 14.252C63.8653 13.3422 63.0392 12.7232 62.0316 12.6763C61.3869 12.6435 60.8043 12.7936 60.3459 13.2719C59.9782 13.6611 59.8254 14.1394 59.792 14.6552C59.7108 15.9354 60.4748 17.0234 62.1748 16.9999ZM44.8166 10.9319C43.4652 10.3129 42.066 10.2895 40.6716 10.7819C39.5112 11.1898 38.6803 11.9683 38.2267 13.0984C37.7396 14.3129 37.7683 15.5415 38.241 16.7561C38.6278 17.7549 39.3489 18.463 40.3421 18.8944C41.0393 19.1945 41.7747 19.3164 42.5388 19.3446C42.665 19.3305 42.7917 19.3189 42.9185 19.3074C43.2135 19.2805 43.5088 19.2536 43.7995 19.1945C45.2416 18.8991 46.3208 18.1347 46.8939 16.7654C47.2425 15.9307 47.3236 15.0538 47.1947 14.1629C46.975 12.681 46.2014 11.5697 44.8166 10.9319ZM44.5253 15.9026C44.1385 16.8592 43.2837 17.1969 42.3239 17.1218C41.1157 17.0234 40.5045 16.1465 40.4233 15.0726C40.4201 15.0288 40.4212 14.9829 40.4223 14.9377V14.9376V14.9375V14.9374V14.9374V14.9373V14.9373L40.4229 14.9069C40.4232 14.8948 40.4233 14.8828 40.4233 14.871C40.4472 14.0972 40.6907 13.4173 41.3832 12.9811C42.7298 12.1371 44.4489 12.9155 44.6829 14.463C44.7593 14.9507 44.7116 15.4384 44.5253 15.9026ZM78.11 10.7115C79.5235 10.2848 80.9227 10.3411 82.2454 11.021C83.487 11.6588 84.1938 12.6998 84.4182 14.0409C84.5949 15.0867 84.4803 16.1089 83.9884 17.0656C83.3724 18.2566 82.3457 18.9225 81.0325 19.1804C80.7539 19.2365 80.4683 19.2647 80.1839 19.2928C80.0636 19.3047 79.9436 19.3166 79.8243 19.3305C78.8645 19.3117 77.9524 19.1382 77.1215 18.6506C76.0328 18.0128 75.4311 17.0421 75.2162 15.837C75.049 14.8944 75.0968 13.9659 75.474 13.0702C75.9755 11.8838 76.8637 11.0913 78.11 10.7115ZM79.5283 17.1171C80.2207 17.1828 80.8701 17.0515 81.3668 16.5263C81.8109 16.062 81.9494 15.4806 81.9637 14.8616C81.9573 14.8079 81.9525 14.7537 81.9476 14.6994V14.6993C81.9381 14.5922 81.9286 14.4843 81.9064 14.3786C81.7488 13.6377 81.3668 13.0562 80.6171 12.7983C79.8244 12.5263 79.0555 12.5966 78.3918 13.15C77.9286 13.5392 77.7232 14.0644 77.6707 14.6506C77.5752 15.7057 78.067 16.9811 79.5283 17.1171ZM54.0664 10.8475V15.0679C54.0664 16.2871 53.2211 17.1406 52.0416 17.1359C51.2871 17.1312 50.7332 16.7936 50.5183 16.1558C50.4228 15.8838 50.3751 15.5837 50.3703 15.2977C50.3588 14.116 50.3596 12.9313 50.3603 11.746V11.7458V11.7457V11.7456C50.3605 11.4494 50.3607 11.1531 50.3607 10.8569V10.6505H47.8537C47.8489 10.7068 47.8489 10.7443 47.8489 10.7865C47.8489 11.29 47.8484 11.793 47.8479 12.2958V12.2963V12.2968V12.2974C47.8468 13.3019 47.8457 14.3058 47.8489 15.3117C47.8489 15.8698 47.9062 16.4231 48.0543 16.9624C48.3217 17.9237 48.8517 18.674 49.8354 19.0491C50.4849 19.2977 51.163 19.3399 51.8458 19.3024C52.6242 19.2602 53.3023 18.9788 53.8562 18.4301C53.9173 18.3675 53.9767 18.3033 54.0401 18.2347L54.0406 18.2342L54.0407 18.2341L54.0407 18.2341C54.0863 18.1848 54.1339 18.1332 54.1857 18.0784C54.2192 18.4255 54.2478 18.7396 54.2765 19.0585H56.5113V10.6552H54.0664V10.8475ZM93.6441 12.6388C93.8399 13.2531 93.902 13.8815 93.9067 14.5192C93.9163 15.987 93.9115 17.4548 93.9067 18.9225V18.9226C93.9067 18.9507 93.9067 18.9788 93.902 19.0257H91.3949V18.8428C91.3949 18.4892 91.3952 18.1352 91.3955 17.7811V17.7807V17.7803C91.3964 16.7167 91.3973 15.6518 91.3902 14.5896C91.3902 14.327 91.352 14.0644 91.2946 13.8065C91.1466 13.1547 90.6595 12.7607 89.9862 12.6717C88.587 12.4888 87.7036 13.5204 87.6988 14.674C87.6917 15.6902 87.6926 16.7065 87.6935 17.7227V17.7231C87.6938 18.0619 87.6941 18.4008 87.6941 18.7396V19.021H85.2443V10.6412H87.4839C87.5126 10.9835 87.5412 11.3211 87.5699 11.64C87.6457 11.5751 87.7198 11.509 87.7937 11.4431C87.9758 11.2808 88.156 11.1203 88.3531 10.9835C89.0168 10.5192 89.7761 10.4208 90.564 10.463C91.2135 10.4958 91.8343 10.6177 92.3977 10.96C93.0424 11.3539 93.4197 11.9448 93.6441 12.6388ZM72.3653 16.9858C71.4532 17.089 70.5316 16.6107 70.1687 15.8463C69.7676 14.9976 69.949 13.8862 70.6128 13.286C71.2384 12.7139 71.9976 12.6107 72.7951 12.7701C73.0386 12.8179 73.271 12.9134 73.5119 13.0124L73.5119 13.0124C73.6254 13.059 73.7407 13.1064 73.86 13.15C74.2802 12.681 74.7387 12.1699 75.2019 11.6541C74.7864 11.2086 74.3137 10.8709 73.7406 10.6881C72.8667 10.4067 71.969 10.3833 71.076 10.5568C69.6482 10.8334 68.5403 11.5697 67.8956 12.8827C67.4229 13.844 67.3608 14.8616 67.547 15.8979C67.7572 17.0515 68.3397 17.9706 69.3617 18.599C70.0206 19.0022 70.7465 19.2133 71.5153 19.2789C72.4847 19.3633 73.4254 19.2789 74.3041 18.8287C74.7387 18.6083 75.1255 18.327 75.4645 17.9612C75.2061 17.6982 74.9489 17.4375 74.6922 17.1774L74.6921 17.1773C74.427 16.9087 74.1626 16.6407 73.8982 16.3715C73.3538 16.7654 72.9766 16.9155 72.3653 16.9858ZM37.1045 19.0304H34.65V7.18513H37.1045V19.0304Z" fill="white"/>
</svg>
