<svg width="23" height="21" viewBox="0 0 23 21" fill="none" xmlns="http://www.w3.org/2000/svg">
  <path fill-rule="evenodd" clip-rule="evenodd"
    d="M19.4999 13.9999H9.78621C8.9826 13.9999 8.23215 13.5983 7.78639 12.9297L2.5 5.00007V10.0853C3.0826 10.2912 3.5 10.8468 3.5 11.4999C3.5 12.0939 3.15473 12.6073 2.65393 12.8503C2.66156 12.8593 2.66952 12.8684 2.67781 12.8777C2.81377 13.0291 3.00658 13.1711 3.23289 13.3209C3.78506 13.6864 4 14.3012 4 14.9999C4 15.577 3.85539 16.1016 3.47855 16.4785C3.10171 16.8553 2.57707 16.9999 2 16.9999C0.866667 16.9999 0 16.3999 0 15.4999C0 15.2238 0.223858 14.9999 0.5 14.9999C0.776142 14.9999 1 15.2238 1 15.4999C1 15.5999 1.13333 15.9999 2 15.9999C2.42293 15.9999 2.64829 15.8945 2.77145 15.7714C2.89461 15.6482 3 15.4229 3 14.9999C3 14.4952 2.85288 14.2686 2.68093 14.1548C2.4467 13.9998 2.16106 13.799 1.93369 13.5457C1.78449 13.3795 1.64826 13.1771 1.56974 12.9373C0.951005 12.7524 0.5 12.1788 0.5 11.4999C0.5 10.8468 0.917404 10.2912 1.5 10.0853V3.50007L1.04824 2.82242C0.729405 2.34417 0.792462 1.70736 1.1989 1.30093C1.64914 0.850685 2.37186 0.828122 2.84932 1.2494L10.016 7.57292C10.3278 7.84808 10.7294 7.99992 11.1453 7.99992H13.2191C13.678 7.99992 14.078 7.68762 14.1893 7.24246L14.4999 5.99992H13.9999C13.7238 5.99992 13.4999 5.77606 13.4999 5.49992C13.4999 5.22378 13.7238 4.99992 13.9999 4.99992H19.4999C20.6045 4.99992 21.4999 5.89535 21.4999 6.99992V11.9999C21.4999 13.1045 20.6045 13.9999 19.4999 13.9999ZM15.2392 10.8038L15.8392 7.80381C15.9327 7.33638 16.3431 6.99992 16.8198 6.99992H17.5C18.0523 6.99992 18.5 7.44764 18.5 7.99992V10.9999C18.5 11.5522 18.0523 11.9999 17.5 11.9999H16.2198C15.5888 11.9999 15.1155 11.4226 15.2392 10.8038ZM17.5 14.9999V13.9999H10.5V14.9999H7.5C5.84315 14.9999 4.5 16.3431 4.5 17.9999C4.5 19.6568 5.84315 20.9999 7.5 20.9999H19.5C21.1569 20.9999 22.5 19.6568 22.5 17.9999C22.5 16.3431 21.1569 14.9999 19.5 14.9999H17.5ZM6.5 17.9999C6.5 17.4476 6.94772 16.9999 7.5 16.9999H19.5C20.0523 16.9999 20.5 17.4476 20.5 17.9999C20.5 18.5522 20.0523 18.9999 19.5 18.9999H7.5C6.94772 18.9999 6.5 18.5522 6.5 17.9999Z"
    fill="#30363B" />
</svg>