<svg width="200" height="50" viewBox="0 0 200 50" fill="none" xmlns="http://www.w3.org/2000/svg">
<path d="M14.8558 16.5607C10.9845 5.92244 11.6769 1.95668 11.6769 1.95668C16.8073 -1.1278 23.7001 -0.120614 26.8475 1.92521C27.6029 3.75072 23.5742 16.8755 23.5742 16.8755C25.7459 13.2559 27.8232 7.84238 29.334 3.71925C33.3312 6.20572 35.6603 9.6364 36.4787 13.9169C36.7305 15.2073 36.5731 17.5679 38.2412 17.3161V21.6281C33.9607 22.2261 27.9491 22.9815 24.6758 23.2018C17.4053 23.6739 7.5853 22.8241 0 21.7225C0 20.0229 0.0314723 17.442 0.125895 17.4735C2.36057 17.6623 1.79403 14.4205 2.29762 12.7838C3.39922 9.0384 5.3821 5.98538 9.00164 3.68776C9.00164 3.65629 10.2291 9.19577 14.8558 16.5607Z" fill="#F18900"/>
<path d="M29.5864 24.5552C29.2087 30.0002 24.6764 34.2807 19.1369 34.2807C13.5974 34.2807 9.09663 30.0002 8.68747 24.5552C6.13805 24.3349 3.62011 24.0201 1.29102 23.7054C1.29102 23.7369 1.29102 23.7683 1.29102 23.7683C1.29102 33.6198 9.28548 41.6142 19.1369 41.6142C28.9884 41.6142 36.9828 33.6198 36.9828 23.7683C36.9828 23.7054 36.9828 23.6739 36.9828 23.611C34.6537 23.9572 32.0099 24.3034 29.5864 24.5552Z" fill="#22455B"/>
<path d="M9.06516 27.1678L1.29102 24.9016V47.9722C1.29102 49.1683 2.61294 49.8607 3.58864 49.1997L8.4042 45.9579C8.81336 45.6746 9.06516 45.234 9.06516 44.7304V27.1678Z" fill="#22455B"/>
<path d="M56.8464 12.2942C58.9307 12.2942 60.7348 12.6416 62.2588 13.3363C63.8053 14.0311 64.9931 15.0172 65.8223 16.2947C66.6516 17.5722 67.0662 19.085 67.0662 20.8331C67.0662 22.5588 66.6516 24.0716 65.8223 25.3715C64.9931 26.649 63.8053 27.6351 62.2588 28.3299C60.7348 29.0023 58.9307 29.3384 56.8464 29.3384H52.1062V35.8267H46.6602V12.2942H56.8464ZM56.5438 24.9009C58.1799 24.9009 59.4237 24.5535 60.2754 23.8587C61.127 23.1415 61.5529 22.133 61.5529 20.8331C61.5529 19.5108 61.127 18.5023 60.2754 17.8075C59.4237 17.0903 58.1799 16.7317 56.5438 16.7317H52.1062V24.9009H56.5438Z" fill="#22455B"/>
<path d="M75.5936 20.1271C76.2211 19.2531 77.0615 18.5919 78.1149 18.1437C79.1907 17.6955 80.4233 17.4713 81.8129 17.4713V22.3123C81.2302 22.2675 80.8379 22.2451 80.6362 22.2451C79.1346 22.2451 77.958 22.6709 77.1064 23.5226C76.2547 24.3518 75.8289 25.6069 75.8289 27.2878V35.8267H70.5845V17.7403H75.5936V20.1271Z" fill="#22455B"/>
<path d="M102.484 26.8507C102.484 26.918 102.45 27.3886 102.383 28.2627H88.7003C88.9469 29.3833 89.5296 30.2685 90.4485 30.9185C91.3673 31.5684 92.5103 31.8934 93.8775 31.8934C94.8188 31.8934 95.648 31.7589 96.3652 31.49C97.1048 31.1986 97.7883 30.7504 98.4159 30.1453L101.206 33.1709C99.5029 35.1207 97.0151 36.0956 93.743 36.0956C91.7035 36.0956 89.8994 35.7034 88.3305 34.919C86.7617 34.1122 85.5514 33.0028 84.6998 31.5908C83.8481 30.1789 83.4223 28.5764 83.4223 26.7835C83.4223 25.0129 83.8369 23.4217 84.6662 22.0097C85.5178 20.5754 86.672 19.466 88.1288 18.6816C89.608 17.8748 91.2553 17.4713 93.0706 17.4713C94.8412 17.4713 96.4436 17.8523 97.878 18.6143C99.3124 19.3763 100.433 20.4745 101.24 21.9089C102.069 23.3208 102.484 24.9681 102.484 26.8507ZM93.1043 21.4382C91.9164 21.4382 90.9191 21.7744 90.1123 22.4468C89.3054 23.1191 88.8124 24.038 88.6331 25.2034H97.5418C97.3625 24.0604 96.8695 23.1528 96.0626 22.4804C95.2558 21.7856 94.2697 21.4382 93.1043 21.4382Z" fill="#22455B"/>
<path d="M112.06 36.0956C110.558 36.0956 109.09 35.9163 107.656 35.5577C106.222 35.1767 105.079 34.7061 104.227 34.1458L105.975 30.3806C106.782 30.8961 107.757 31.3219 108.9 31.6581C110.043 31.9718 111.164 32.1287 112.262 32.1287C114.48 32.1287 115.59 31.5796 115.59 30.4814C115.59 29.966 115.287 29.5962 114.682 29.3721C114.077 29.1479 113.147 28.9574 111.892 28.8006C110.413 28.5764 109.191 28.3187 108.228 28.0273C107.264 27.736 106.423 27.2205 105.706 26.4809C105.011 25.7413 104.664 24.688 104.664 23.3208C104.664 22.1778 104.989 21.1693 105.639 20.2952C106.311 19.3988 107.275 18.704 108.53 18.2109C109.808 17.7179 111.309 17.4713 113.035 17.4713C114.312 17.4713 115.579 17.617 116.834 17.9084C118.111 18.1773 119.165 18.5583 119.994 19.0514L118.246 22.783C116.654 21.8865 114.918 21.4382 113.035 21.4382C111.914 21.4382 111.074 21.5951 110.514 21.9089C109.953 22.2227 109.673 22.6261 109.673 23.1191C109.673 23.6794 109.976 24.0716 110.581 24.2958C111.186 24.5199 112.15 24.7328 113.472 24.9345C114.951 25.181 116.161 25.45 117.103 25.7413C118.044 26.0103 118.862 26.5145 119.557 27.2541C120.252 27.9937 120.599 29.0247 120.599 30.347C120.599 31.4676 120.263 32.4649 119.59 33.339C118.918 34.213 117.932 34.8966 116.632 35.3897C115.355 35.8603 113.831 36.0956 112.06 36.0956Z" fill="#22455B"/>
<path d="M135.5 34.9526C134.985 35.3336 134.346 35.625 133.584 35.8267C132.844 36.006 132.06 36.0956 131.231 36.0956C129.079 36.0956 127.409 35.5465 126.222 34.4484C125.056 33.3502 124.473 31.7365 124.473 29.6074V22.1778H121.683V18.1437H124.473V13.7398H129.718V18.1437H134.223V22.1778H129.718V29.5401C129.718 30.3022 129.908 30.8961 130.289 31.3219C130.693 31.7253 131.253 31.927 131.97 31.927C132.799 31.927 133.505 31.7029 134.088 31.2547L135.5 34.9526Z" fill="#22455B"/>
<path d="M145.739 17.4713C148.541 17.4713 150.692 18.1437 152.194 19.4884C153.695 20.8107 154.446 22.8166 154.446 25.506V35.8267H149.538V33.5743C148.552 35.2552 146.714 36.0956 144.025 36.0956C142.635 36.0956 141.425 35.8603 140.394 35.3897C139.385 34.919 138.612 34.2691 138.074 33.4398C137.536 32.6106 137.267 31.6693 137.267 30.6159C137.267 28.935 137.895 27.6127 139.15 26.649C140.427 25.6853 142.388 25.2034 145.033 25.2034H149.202C149.202 24.0604 148.854 23.1864 148.16 22.5813C147.465 21.9537 146.423 21.64 145.033 21.64C144.069 21.64 143.117 21.7968 142.176 22.1106C141.257 22.402 140.472 22.8054 139.822 23.3208L137.94 19.6565C138.926 18.9617 140.102 18.4238 141.47 18.0428C142.859 17.6618 144.282 17.4713 145.739 17.4713ZM145.336 32.5658C146.232 32.5658 147.028 32.364 147.722 31.9606C148.417 31.5348 148.91 30.9185 149.202 30.1117V28.2627H145.605C143.453 28.2627 142.377 28.9686 142.377 30.3806C142.377 31.0529 142.635 31.5908 143.15 31.9942C143.688 32.3753 144.417 32.5658 145.336 32.5658Z" fill="#22455B"/>
<path d="M164.202 20.1271C164.829 19.2531 165.67 18.5919 166.723 18.1437C167.799 17.6955 169.031 17.4713 170.421 17.4713V22.3123C169.838 22.2675 169.446 22.2451 169.244 22.2451C167.743 22.2451 166.566 22.6709 165.714 23.5226C164.863 24.3518 164.437 25.6069 164.437 27.2878V35.8267H159.192V17.7403H164.202V20.1271Z" fill="#22455B"/>
<path d="M185.828 34.9526C185.313 35.3336 184.674 35.625 183.912 35.8267C183.173 36.006 182.388 36.0956 181.559 36.0956C179.407 36.0956 177.738 35.5465 176.55 34.4484C175.384 33.3502 174.802 31.7365 174.802 29.6074V22.1778H172.011V18.1437H174.802V13.7398H180.046V18.1437H184.551V22.1778H180.046V29.5401C180.046 30.3022 180.237 30.8961 180.618 31.3219C181.021 31.7253 181.581 31.927 182.298 31.927C183.128 31.927 183.834 31.7029 184.416 31.2547L185.828 34.9526Z" fill="#22455B"/>
<path d="M193.781 20.1271C194.409 19.2531 195.249 18.5919 196.303 18.1437C197.378 17.6955 198.611 17.4713 200.001 17.4713V22.3123C199.418 22.2675 199.026 22.2451 198.824 22.2451C197.322 22.2451 196.146 22.6709 195.294 23.5226C194.442 24.3518 194.017 25.6069 194.017 27.2878V35.8267H188.772V17.7403H193.781V20.1271Z" fill="#22455B"/>
</svg>
